<svg xmlns="http://www.w3.org/2000/svg" xmlns:xlink="http://www.w3.org/1999/xlink" aria-hidden="true" focusable="false" width="25" height="25" preserveAspectRatio="xMidYMid meet" viewBox="0 0 24 24" data-v-426ad8c0="" data-icon="eva:close-circle-fill" data-inline="false" data-width="25" data-height="25" class="iconify" style="transform: rotate(360deg);"><g id="IconifyId-187e73ccdbf-491b94-30"><g id="IconifyId-187e73ccdbf-491b94-31"><path id="IconifyId-187e73ccdbf-491b94-32" fill="currentColor" d="M12 2a10 10 0 1 0 10 10A10 10 0 0 0 12 2Zm2.71 11.29a1 1 0 0 1 0 1.42a1 1 0 0 1-1.42 0L12 13.41l-1.29 1.3a1 1 0 0 1-1.42 0a1 1 0 0 1 0-1.42l1.3-1.29l-1.3-1.29a1 1 0 0 1 1.42-1.42l1.29 1.3l1.29-1.3a1 1 0 0 1 1.42 1.42L13.41 12Z"></path></g></g></svg>
