<svg width="24" height="24" viewBox="0 0 24 24" fill="currentColor" xmlns="http://www.w3.org/2000/svg">
<path d="M5.47007 6.72432C5.63041 6.28912 6.04504 6 6.50884 6L17.4913 6C17.9551 6 18.3698 6.28912 18.5301 6.72432C18.8335 7.54772 18.8335 8.45228 18.5301 9.27568C18.3698 9.71088 17.9551 10 17.4913 10L6.50884 10C6.04504 10 5.63041 9.71088 5.47007 9.27568C5.16671 8.45228 5.16671 7.54772 5.47007 6.72432Z" fill="currentColor"/>
<path d="M5.47007 14.7243C5.63041 14.2891 6.04504 14 6.50884 14H17.4913C17.9551 14 18.3698 14.2891 18.5301 14.7243C18.8335 15.5477 18.8335 16.4523 18.5301 17.2757C18.3698 17.7109 17.9551 18 17.4913 18H6.50884C6.04504 18 5.63041 17.7109 5.47007 17.2757C5.16671 16.4523 5.16671 15.5477 5.47007 14.7243Z" fill="currentColor"/>
</svg>