<svg width="24" height="24" viewBox="0 0 24 24" stroke="currentColor" fill="none" xmlns="http://www.w3.org/2000/svg">
<path d="M20 17.0002V11.4522V11.4515C20 10.9176 20 10.6506 19.9351 10.4021C19.8775 10.1817 19.7827 9.97275 19.6548 9.78432C19.5104 9.5717 19.3096 9.39581 18.9074 9.04395L14.1074 4.84395C13.3608 4.19066 12.9875 3.86406 12.5674 3.73982C12.1972 3.63035 11.8028 3.63035 11.4326 3.73982C11.0127 3.864 10.6398 4.19031 9.894 4.84288L9.89278 4.84395L5.09277 9.04395L5.09182 9.04479C4.69032 9.39609 4.48944 9.57187 4.34521 9.78433C4.2173 9.97275 4.12255 10.1817 4.06497 10.4021C4 10.6507 4 10.9179 4 11.4522V17.0002C4 17.932 4 18.3979 4.15224 18.7654C4.35523 19.2555 4.74481 19.6449 5.23486 19.8479C5.60241 20.0001 6.06835 20.0001 7.00023 20.0001C7.93211 20.0001 8.39782 20.0001 8.76537 19.8479C9.25542 19.6449 9.64467 19.2555 9.84766 18.7654C9.9999 18.3979 10 17.932 10 17.0001V16.0001C10 14.8955 10.8954 14.0001 12 14.0001C13.1046 14.0001 14 14.8955 14 16.0001V17.0001C14 17.932 14 18.3979 14.1522 18.7654C14.3552 19.2555 14.7448 19.6449 15.2349 19.8479C15.6024 20.0001 16.0683 20.0001 17.0002 20.0001C17.9321 20.0001 18.3978 20.0001 18.7654 19.8479C19.2554 19.6449 19.6447 19.2555 19.8477 18.7654C19.9999 18.3979 20 17.932 20 17.0002Z" stroke-width="2" stroke-linecap="round" stroke-linejoin="round"/>
</svg>
