<svg width="18" height="18" viewBox="0 0 20 20" fill="none" xmlns="http://www.w3.org/2000/svg">
<path fill-rule="evenodd" clip-rule="evenodd" d="M6.38857 18.3334H13.6108C16.436 18.3334 18.3334 16.3517 18.3334 13.4028V6.59735C18.3334 3.64851 16.436 1.66675 13.6116 1.66675H6.38857C3.56416 1.66675 1.66675 3.64851 1.66675 6.59735V13.4028C1.66675 16.3517 3.56416 18.3334 6.38857 18.3334ZM7.08246 9.16675C5.93359 9.16675 5.00008 8.23197 5.00008 7.08342C5.00008 5.93486 5.93359 5.00008 7.08246 5.00008C8.2305 5.00008 9.16484 5.93486 9.16484 7.08342C9.16484 8.23197 8.2305 9.16675 7.08246 9.16675ZM16.5174 12.445C16.7965 13.1606 16.6515 14.0205 16.3532 14.7292C15.9996 15.572 15.3225 16.2101 14.4694 16.4887C14.0906 16.6126 13.6934 16.6667 13.2971 16.6667H6.27395C5.57508 16.6667 4.95665 16.499 4.44967 16.1869C4.13207 15.9908 4.07593 15.5384 4.3114 15.2452C4.70525 14.755 5.09407 14.2631 5.48625 13.7669C6.23373 12.8174 6.73736 12.5422 7.29713 12.7839C7.52422 12.8836 7.75215 13.0333 7.98678 13.1915C8.61192 13.6164 9.4809 14.2003 10.6256 13.5665C11.4089 13.1277 11.8632 12.3752 12.2589 11.7199L12.2655 11.7089C12.2935 11.663 12.3212 11.6171 12.3489 11.5714L12.349 11.5711L12.3491 11.5711C12.482 11.3511 12.6132 11.134 12.7616 10.934C12.9476 10.6838 13.6373 9.90118 14.5306 10.4585C15.0996 10.8093 15.578 11.2841 16.0901 11.7923C16.2853 11.9867 16.4244 12.2077 16.5174 12.445Z" fill="currentColor"/>
</svg>