<svg width="33" height="20" viewBox="0 0 33 20" fill="none" xmlns="http://www.w3.org/2000/svg">
<path fill-rule="evenodd" clip-rule="evenodd" d="M25.3701 13.6618C23.803 17.724 19.799 20.4018 15.4309 19.9427C10.9994 19.4769 7.60571 15.931 6.98646 11.5448L2.30743 11.0059C0.927952 10.8471 -0.0569306 9.55156 0.107636 8.11233C0.272202 6.6731 1.5239 5.63515 2.90338 5.79401L7.58236 6.33284C9.14957 2.27079 13.1535 -0.406857 17.5215 0.0522342C21.9529 0.517993 25.3466 4.06381 25.9659 8.44989L30.6926 8.99421C32.072 9.15307 33.0569 10.4486 32.8924 11.8878C32.7278 13.327 31.4761 14.365 30.0966 14.2061L25.3701 13.6618ZM21.0083 10.4738C20.7339 13.085 18.4823 14.9886 15.9793 14.7255C13.4762 14.4624 11.6696 12.1323 11.9441 9.52111C12.2185 6.90987 14.4701 5.00632 16.9731 5.2694C19.4762 5.53248 21.2828 7.86257 21.0083 10.4738Z" fill="currentColor"/>
</svg>
