<svg xmlns="http://www.w3.org/2000/svg" version="1.1" xmlns:xlink="http://www.w3.org/1999/xlink" xmlns:svgjs="http://svgjs.com/svgjs" width="1000" height="1000"><rect width="1000" height="1000" rx="500" ry="500" fill="#ffffff"></rect><g transform="matrix(5.208333333333333,0,0,5.208333333333333,-7.986641089121463,-2.7336090405781874)"><svg xmlns="http://www.w3.org/2000/svg" version="1.1" xmlns:xlink="http://www.w3.org/1999/xlink" xmlns:svgjs="http://svgjs.com/svgjs" width="192" height="192"><svg width="192" height="192" viewBox="0 0 192 192" fill="none" xmlns="http://www.w3.org/2000/svg">
<path fill-rule="evenodd" clip-rule="evenodd" d="M132.303 110.863C126.225 126.619 110.694 137.006 93.7512 135.225C76.5624 133.418 63.3989 119.664 60.997 102.651L42.848 100.561C37.4973 99.945 33.6772 94.9199 34.3155 89.3375C34.9538 83.755 39.8089 79.729 45.1596 80.3452L63.3083 82.4352C69.3872 66.6794 84.9177 56.2933 101.86 58.0741C119.049 59.8806 132.212 73.6341 134.614 90.6468L152.948 92.7581C158.299 93.3743 162.119 98.3993 161.48 103.982C160.842 109.564 155.987 113.59 150.636 112.974L132.303 110.863ZM115.385 98.4971C114.32 108.626 105.587 116.009 95.8781 114.989C86.1694 113.968 79.1619 104.93 80.2264 94.8018C81.291 84.6734 90.0244 77.2899 99.7332 78.3103C109.442 79.3308 116.449 88.3687 115.385 98.4971Z" fill="#1B8CFF"></path>
</svg></svg></g></svg>