<svg width="180" height="180" viewBox="0 0 180 180" fill="none" xmlns="http://www.w3.org/2000/svg">
<path fill-rule="evenodd" clip-rule="evenodd" d="M116.874 101.005C112.313 112.826 100.661 120.619 87.949 119.283C75.0527 117.927 65.1765 107.608 63.3743 94.8437L49.7576 93.2756C45.7431 92.8133 42.877 89.0432 43.3559 84.8548C43.8348 80.6664 47.4774 77.6458 51.4919 78.1081L65.1085 79.6762C69.6693 67.855 81.3214 60.0626 94.0329 61.3986C106.929 62.7541 116.805 73.073 118.607 85.8371L132.363 87.4212C136.377 87.8835 139.243 91.6536 138.765 95.842C138.286 100.03 134.643 103.051 130.628 102.589L116.874 101.005ZM104.18 91.727C103.382 99.3261 96.829 104.866 89.5448 104.1C82.2606 103.335 77.003 96.5536 77.8017 88.9545C78.6004 81.3554 85.1529 75.8158 92.4371 76.5814C99.7214 77.347 104.979 84.1279 104.18 91.727Z" fill="#3B82F6"/>
</svg>
